<?xml version="1.0" encoding="UTF-8"?>
<svg height="128px" viewBox="0 0 128 128" width="128px" xmlns="http://www.w3.org/2000/svg">
    <path d="m 21.066406 13.21875 h 34.8125 c 3.875 0 7.011719 3.136719 7.011719 7.011719 v 86.949219 c 0 3.871093 -3.136719 7.011718 -7.011719 7.011718 h -34.8125 c -3.875 0 -7.011718 -3.140625 -7.011718 -7.011718 v -86.949219 c 0 -3.875 3.136718 -7.011719 7.011718 -7.011719 z m 0 0" fill="#3584e4" stroke="#ffffff" stroke-width="2.48158"/>
    <path d="m 29.21875 38.339844 h 17.714844 c 1.191406 0 2.160156 0.964844 2.160156 2.160156 v 17.714844 c 0 1.191406 -0.96875 2.160156 -2.160156 2.160156 h -17.714844 c -1.195312 0 -2.160156 -0.96875 -2.160156 -2.160156 v -17.714844 c 0 -1.195312 0.964844 -2.160156 2.160156 -2.160156 z m 0 0" fill="#ffffff"/>
    <g fill="#3584e4">
        <path d="m 36.460938 40.414062 h 3.074218 c 0.460938 0 0.835938 0.375 0.835938 0.835938 v 8.898438 c 0 0.460937 -0.375 0.835937 -0.835938 0.835937 h -3.074218 c -0.460938 0 -0.835938 -0.375 -0.835938 -0.835937 v -8.898438 c 0 -0.460938 0.375 -0.835938 0.835938 -0.835938 z m 0 0"/>
        <path d="m 38.011719 55.128906 l -4.148438 -6.242187 l 8.417969 0.0625 z m 0 0" stroke="#3584e4" stroke-linejoin="round" stroke-width="1.09754"/>
        <path d="m 31.535156 56.519531 h 13.023438 c 0.238281 0 0.433594 0.195313 0.433594 0.4375 v 1.144531 c 0 0.242188 -0.195313 0.4375 -0.433594 0.4375 h -13.023438 c -0.238281 0 -0.433594 -0.195312 -0.433594 -0.4375 v -1.144531 c 0 -0.242187 0.195313 -0.4375 0.433594 -0.4375 z m 0 0"/>
    </g>
    <path d="m 92.730469 12.601562 v 43.988282 h 22.742187 l -22.535156 58.363281 v -44.007813 h -22.644531 z m 0 0" fill="#f5c211" stroke="#f5c211" stroke-linecap="round" stroke-linejoin="round" stroke-width="1.27377"/>
</svg>
